<svg id="Layer_1" data-name="Layer 1" xmlns="http://www.w3.org/2000/svg" viewBox="0 0 196 38.32"><defs><style>.cls-1{fill:#cf1917;}.cls-2{fill:#1d1d1b;}</style></defs><path class="cls-1" d="M82.1,80.5a19.16,19.16,0,1,0,19.16,19.15A19.16,19.16,0,0,0,82.1,80.5Zm9.82,12H84.37v20.9h-4.8V92.53H72.29V88.25H91.92Z" transform="translate(-2.67 -80.5)"/><path class="cls-2" d="M19.63,104.45h4.94v.86q0,5.26-2,6.8t-8.73,1.54c-5.11,0-8.26-.81-9.43-2.43s-1.76-6-1.76-13c0-4.15.79-6.89,2.39-8.19s4.92-2,10-2q5.53,0,7.4,1.62t1.86,6.41l0,.57H19.41V96c0-1.65-.33-2.7-1-3.16s-2.1-.69-4.38-.69q-4.58,0-5.49,1.08t-.93,6.46q0,7.23.83,8.56t5.34,1.33c2.44,0,4-.25,4.76-.74s1.09-1.57,1.09-3.25Zm12.42-3.55H27.6c0-2.11.51-3.52,1.52-4.23s3-1.08,6-1.08q4.9,0,6.63,1.31c1.15.88,1.73,2.54,1.73,5v11.53H39.14l.21-2.41-.11,0c-.84,1.76-2.77,2.63-5.79,2.63q-6.59,0-6.59-5.44t6.74-5.49q4.5,0,5.46,2h.08v-2.86a3.74,3.74,0,0,0-.74-2.74,4.75,4.75,0,0,0-3-.67C33.15,98.44,32.05,99.26,32.05,100.9Zm2.9,4.64q-3.69,0-3.69,2.47a2.66,2.66,0,0,0,.76,2.25,6.39,6.39,0,0,0,3.2.53c2.64,0,4-.86,4-2.6S37.77,105.54,35,105.54ZM46.37,95.8h4.35l-.27,2.47.1,0a5.22,5.22,0,0,1,4.9-2.77q4.78,0,4.78,5.87v1.23h-4.1c0-.48.08-.79.08-.94,0-1.88-.76-2.82-2.26-2.82q-3.23,0-3.23,4.19v10.38H46.37Zm57.1,0h4.23l-.26,2.47.1,0a5,5,0,0,1,4.77-2.77q4.66,0,4.66,5.87v1.23h-4a8.68,8.68,0,0,0,.08-.94c0-1.88-.74-2.82-2.2-2.82q-3.15,0-3.15,4.19v10.38h-4.23Zm20.25,5.1h-4.33c0-2.11.5-3.52,1.49-4.23s2.94-1.08,5.86-1.08c3.18,0,5.34.44,6.46,1.31s1.68,2.54,1.68,5v11.53h-4.23l.2-2.41-.11,0c-.82,1.76-2.69,2.63-5.65,2.63-4.27,0-6.42-1.81-6.42-5.44s2.2-5.49,6.57-5.49q4.39,0,5.33,2h.08v-2.86a3.79,3.79,0,0,0-.73-2.74,4.53,4.53,0,0,0-3-.67Q123.72,98.44,123.72,100.9Zm2.83,4.64q-3.58,0-3.58,2.47a2.69,2.69,0,0,0,.73,2.25,6.1,6.1,0,0,0,3.12.53c2.57,0,3.86-.86,3.86-2.6S129.31,105.54,126.55,105.54Zm28.3-17.29v25.18h-4.13l.15-2.84-.08,0c-.82,2.06-2.62,3.08-5.4,3.08s-4.65-.63-5.56-1.91-1.36-3.85-1.36-7.75c0-3.15.49-5.33,1.46-6.56s2.71-1.84,5.2-1.84q4.34,0,5.41,2.73h.07V88.25Zm-8.31,10.68c-1.58,0-2.6.34-3.07,1s-.71,2.11-.71,4.32c0,2.56.24,4.21.71,4.95s1.52,1.1,3.15,1.1,2.79-.36,3.26-1.08.71-2.4.71-5c0-2.17-.26-3.59-.79-4.26S148.19,98.93,146.54,98.93Zm23.87,8.86h4.25v.68q0,5.16-7.77,5.16c-3.51,0-5.81-.59-6.9-1.79s-1.63-3.71-1.63-7.58c0-3.43.57-5.74,1.71-6.91s3.35-1.77,6.64-1.77,5.27.57,6.34,1.72,1.61,3.41,1.61,6.78v1.29h-12c0,.39,0,.65,0,.77,0,1.74.27,2.9.81,3.47s1.61.87,3.21.87a5.85,5.85,0,0,0,3-.51A2.59,2.59,0,0,0,170.41,107.79Zm0-5,0-.7c0-1.4-.24-2.32-.72-2.73a5.34,5.34,0,0,0-3.18-.63c-1.58,0-2.6.25-3.08.76s-.71,1.6-.71,3.3Zm8.08,9.31v1.33h-1.24V112.1Zm4.47-.64h1.23v.18l-.07.78c-.16.71-.89,1.07-2.22,1.07a2.71,2.71,0,0,1-2-.52,4.88,4.88,0,0,1,0-4.22,2.5,2.5,0,0,1,1.88-.54,3,3,0,0,1,1.82.39,1.89,1.89,0,0,1,.47,1.49h-1.23c0-.6-.34-.9-1-.9-.5,0-.81.09-.93.28a3.12,3.12,0,0,0-.19,1.41,2.79,2.79,0,0,0,.2,1.35c.14.19.48.28,1,.28a1.21,1.21,0,0,0,.82-.19A1.36,1.36,0,0,0,183,111.46Zm4.42-3.25a2.82,2.82,0,0,1,2,.48,3,3,0,0,1,.47,2,3.73,3.73,0,0,1-.46,2.26,2.53,2.53,0,0,1-1.91.53,3,3,0,0,1-2.06-.5,3.42,3.42,0,0,1-.46-2.18,3.32,3.32,0,0,1,.45-2.11A2.86,2.86,0,0,1,187.41,108.21Zm0,1c-.52,0-.85.09-1,.28a2.49,2.49,0,0,0-.21,1.29,3.22,3.22,0,0,0,.2,1.46c.13.2.47.29,1,.29s.85-.1,1-.3a3.24,3.24,0,0,0,.2-1.48,2.42,2.42,0,0,0-.21-1.27C188.23,109.28,187.91,109.19,187.4,109.19Zm3.47-.92h1.24l0,.79h0a1.55,1.55,0,0,1,1.58-.86q1.4,0,1.56,1h0a1.52,1.52,0,0,1,1.6-1,1.59,1.59,0,0,1,1.8,1.8v3.42h-1.24v-3.15c0-.73-.3-1.09-.91-1.09s-1.13.4-1.13,1.22v3h-1.24v-3.19a1.48,1.48,0,0,0-.17-.85,1,1,0,0,0-.72-.2c-.76,0-1.15.41-1.15,1.25v3h-1.24Z" transform="translate(-2.67 -80.5)"/></svg>